<svg xmlns="http://www.w3.org/2000/svg" width="512" height="512" viewBox="0 0 46 46"><path d="M44.675 0H41.22c-.426 0-.799.381-.799.807v3.455c0 .426-.316.768-.742.768h-4.454c-.427 0-.839-.342-.839-.768V.807C34.384.381 34.108 0 33.683 0h-3.454c-.427 0-.782.381-.782.807v12.967l-5.271-4.465a1.82 1.82 0 0 0-2.354 0l-5.271 4.465V.807C16.55.381 16.24 0 15.814 0h-3.455c-.426 0-.748.381-.748.807v3.455c0 .426-.368.768-.793.768H6.366c-.426 0-.789-.342-.789-.768V.807C5.579.381 5.25 0 4.824 0H1.371C.944 0 .64.381.64.807v44.421c0 .427.305.771.731.771h17.011v-8.276a4.618 4.618 0 0 1 9.237 0V46h17.057c.427 0 .686-.344.686-.77V.807C45.359.381 45.101 0 44.675 0z" fill="#FFF"/></svg>