<svg xmlns="http://www.w3.org/2000/svg" width="240" height="180"><path d="M28.602 41.906l-6.281 24.89c1.5.22 2.703.329 3.609.329 1.375 0 3.078-.235 5.11-.704l-.47 2.297c-2.093.438-3.718.657-4.874.657-1.22 0-3.016-.11-5.391-.329-2.094-.218-3.828-.328-5.203-.328-2.5 0-5.39.36-8.672 1.078l.703-2.625c3.438-.875 5.672-1.734 6.703-2.578 1.563-1.343 2.766-3.703 3.61-7.078l6.562-26.203c.813-3.344 1.219-5.312 1.219-5.906 0-.563-.195-.984-.586-1.266-.39-.281-1.164-.406-2.32-.375l.609-2.25c3.156-.031 6.938-.61 11.344-1.734-.375 1.187-.86 2.937-1.453 5.25l-3.516 13.828c1.5.313 2.766.469 3.797.469 3.906 0 7.25-1.367 10.031-4.102 2.781-2.734 4.172-5.976 4.172-9.726 0-2.907-1.117-5.297-3.352-7.172-2.234-1.875-5.273-2.813-9.117-2.813-4.906 0-9.703 1.188-14.39 3.563-4.688 2.375-8.204 5.32-10.547 8.836-2.344 3.515-3.516 7.195-3.516 11.039 0 2.906 1.203 5.406 3.61 7.5 1.218 1.031 1.968 1.781 2.25 2.25.28.468.421.968.421 1.5 0 .656-.242 1.226-.726 1.71a2.395 2.395 0 0 1-1.758.727c-1.688 0-3.188-.984-4.5-2.953-1.688-2.562-2.531-5.719-2.531-9.469 0-4.812 1.328-9.297 3.984-13.453 2.656-4.156 6.68-7.593 12.07-10.312 5.391-2.719 11.07-4.078 17.04-4.078 5.562 0 10.14 1.046 13.734 3.14 3.594 2.094 5.39 5.188 5.39 9.282 0 3.843-1.648 7.421-4.945 10.734-3.297 3.312-7.836 5.437-13.617 6.375 1.438 2.875 2.36 4.812 2.766 5.812.656 1.688 1.656 4.532 3 8.532 3.156 9.406 6.422 16.03 9.797 19.875 2.5 2.812 5.203 4.218 8.109 4.218 3 0 4.922-1.359 5.766-4.078.5-1.719.968-2.781 1.406-3.187.594-.563 1.265-.844 2.015-.844.75 0 1.383.266 1.899.797a2.66 2.66 0 0 1 .773 1.922c0 1.937-1.062 3.781-3.187 5.531-2.125 1.75-4.86 2.625-8.203 2.625-3.032 0-5.93-.734-8.696-2.203-2.765-1.469-5.453-3.875-8.062-7.219-2.61-3.344-4.883-7.36-6.82-12.047-.97-2.343-2.391-6.64-4.266-12.89-1.125-3.813-1.828-6.094-2.11-6.844l-1.171-.094c-.282 0-.688.031-1.22.094m55.782 15.047l1.547 2.062c-7.656 7.281-14.219 10.922-19.688 10.922-2.218 0-3.914-.75-5.086-2.25-1.171-1.5-1.757-3.906-1.757-7.219 0-6.687 2.031-13.343 6.094-19.968 4.562-7.532 10.015-11.297 16.359-11.297 2.219 0 3.914.554 5.086 1.664 1.172 1.11 1.758 2.633 1.758 4.57 0 2.031-.703 4.031-2.11 6-1.406 1.969-3.922 4.016-7.547 6.14-1.812 1.032-5.687 2.891-11.625 5.579a29.393 29.393 0 0 0-.421 4.828c0 2.219.351 3.766 1.054 4.64.703.876 1.727 1.313 3.07 1.313 1.282 0 2.688-.36 4.22-1.078 2.062-.969 5.077-2.938 9.046-5.906m-16.406-6.797c5.031-2.25 8.812-4.672 11.344-7.266 1.718-1.812 2.578-3.61 2.578-5.39 0-1.344-.352-2.414-1.055-3.211-.703-.797-1.617-1.196-2.742-1.196-1.156 0-2.281.438-3.375 1.313-1.469 1.156-2.703 2.906-3.703 5.25a47.297 47.297 0 0 0-3.047 10.5M124.414 28.5l3.094-.657-3.516 11.86c-1.406 4.718-2.734 10.156-3.984 16.312-.687 3.344-1.031 5.5-1.031 6.469 0 .969.39 1.453 1.172 1.453.5 0 1.297-.328 2.39-.984 1.938-1.157 3.797-2.594 5.578-4.313l1.5 1.828c-3.562 3.25-5.843 5.22-6.843 5.907-2 1.375-3.907 2.39-5.719 3.046-1.188.438-2.344.657-3.469.657-.812 0-1.422-.188-1.828-.563-.406-.375-.609-.922-.609-1.64 0-.47.125-1.11.375-1.922l1.875-6.375c-2.688 3.218-5.891 5.984-9.61 8.297-2.281 1.437-4.375 2.156-6.28 2.156-1.813 0-3.204-.64-4.173-1.922-1.312-1.719-1.968-3.969-1.968-6.75 0-3.313.882-7 2.648-11.063a40.908 40.908 0 0 1 7.101-11.062c2.969-3.313 6.094-5.75 9.375-7.313 2.532-1.187 5.782-1.78 9.75-1.78 1 0 2.016.062 3.047.187l1.125-1.828m-5.812 7.172c-1.688-.344-3.11-.516-4.266-.516-2.812 0-5.265.773-7.359 2.32-2.094 1.547-4.039 4.328-5.836 8.344-1.797 4.016-2.695 8.023-2.695 12.023 0 2.125.359 3.657 1.078 4.594.718.938 1.656 1.406 2.812 1.406 2.156 0 4.469-1.164 6.938-3.492 2.468-2.328 4.281-5.68 5.437-10.054l3.891-14.625m33.656 21.75l1.594 1.687c-2.438 2.75-5.32 5.258-8.649 7.523-3.328 2.266-6.07 3.399-8.226 3.399-.969 0-1.766-.367-2.391-1.102-.625-.734-.937-1.742-.937-3.023 0-2.5.968-7.688 2.906-15.563l5.062-20.578c1.844-7.437 3.391-12.422 4.641-14.953 1.938-3.844 4.68-6.828 8.227-8.953 3.547-2.125 7.289-3.188 11.226-3.188 1.344 0 2.399.32 3.164.961.766.641 1.149 1.414 1.149 2.32 0 1-.375 1.821-1.125 2.462-.75.64-1.844.96-3.282.96-.937 0-2.265-.156-3.984-.468-1.5-.25-2.891-.375-4.172-.375-1.281 0-2.25.265-2.906.797-.906.75-1.727 2.328-2.461 4.734-.734 2.406-1.93 7.156-3.586 14.25l-4.641 19.64c-2.312 9.845-3.468 14.985-3.468 15.423 0 1 .359 1.5 1.078 1.5.687 0 1.687-.407 3-1.22 2.594-1.624 5.187-3.702 7.781-6.233zm-87.563 92.531a266.473 266.473 0 0 1 7.829 7.594c4.343 4.375 7.375 7.203 9.093 8.484 2.438 1.812 4.547 3.055 6.328 3.726 1.782.672 3.407 1.008 4.876 1.008 1.25 0 2.374-.187 3.374-.562 1-.375 1.907-.938 2.72-1.688.468-.437 1.077-1.39 1.827-2.859.813-1.594 1.844-2.391 3.094-2.391.625 0 1.172.242 1.641.727.469.484.703 1.055.703 1.711 0 1.687-1.266 3.312-3.797 4.875-3.531 2.187-7.563 3.281-12.094 3.281-3.031 0-5.5-.312-7.406-.937-2.625-.875-5.117-2.141-7.477-3.797-2.359-1.657-5.507-4.532-9.445-8.625-3.594-3.688-5.945-6.024-7.055-7.008-1.109-.985-2.21-1.805-3.304-2.461-.594-.375-2.016-1-4.266-1.875-4.375-1.75-7.703-4.375-9.984-7.875-2.281-3.5-3.422-7.719-3.422-12.656 0-8.5 2.922-16.563 8.766-24.188C52.538 96.812 60.086 93 69.335 93c4.406 0 8.188.882 11.344 2.648 3.156 1.766 5.648 4.367 7.476 7.805 1.829 3.437 2.743 7.312 2.743 11.625 0 7.656-2.477 15.047-7.43 22.172-4.953 7.125-11.211 11.359-18.773 12.703m2.109-53.532c-3.625 0-6.961 1.07-10.008 3.211-3.047 2.141-5.539 5.485-7.476 10.032-1.938 4.547-2.907 9.82-2.907 15.82 0 6.875 1.516 12.18 4.547 15.914 3.031 3.734 6.813 5.602 11.344 5.602 3.375 0 6.57-1.11 9.586-3.328 3.015-2.219 5.5-5.711 7.453-10.477 1.953-4.766 2.93-10.242 2.93-16.43 0-6.406-1.493-11.398-4.477-14.976-2.984-3.578-6.648-5.368-10.992-5.368M125.539 111h6.657l-4.407 16.359c-2.593 9.5-3.89 14.906-3.89 16.219 0 .594.14 1.047.422 1.359.281.313.593.469.937.469.531 0 1.156-.234 1.875-.703 1.031-.719 2.984-2.531 5.859-5.438l1.547 1.735c-6.281 6.531-10.906 9.797-13.875 9.797-1 0-1.851-.383-2.554-1.149-.704-.766-1.055-1.851-1.055-3.258 0-1.625.344-3.797 1.031-6.515-2.781 3.187-6.219 5.984-10.312 8.39-2.719 1.594-5.078 2.391-7.078 2.391-1.094 0-1.954-.359-2.579-1.078-.625-.719-.937-1.86-.937-3.422 0-1.219.14-2.531.422-3.938.406-1.968 1.437-5.921 3.094-11.859 2.093-7.531 3.14-12.047 3.14-13.547 0-.875-.312-1.312-.937-1.312-.563 0-1.328.289-2.297.867-.969.578-2.625 1.976-4.969 4.195l-2.063-1.64c4.188-3.75 7.383-6.211 9.586-7.383 2.204-1.172 3.977-1.758 5.321-1.758.75 0 1.359.273 1.828.82.469.547.703 1.399.703 2.555 0 2.156-1.125 7.453-3.375 15.891-2 7.593-3 11.921-3 12.984 0 .656.211 1.219.633 1.687.422.469.883.704 1.383.704 1.75 0 4.234-1.446 7.453-4.336 3.219-2.891 5.328-6.18 6.328-9.868L125.539 111m37.032 26.39l1.546 2.063c-7.656 7.281-14.218 10.922-19.687 10.922-2.219 0-3.914-.75-5.086-2.25-1.172-1.5-1.758-3.907-1.758-7.219 0-6.688 2.031-13.344 6.094-19.969 4.562-7.531 10.016-11.297 16.359-11.297 2.219 0 3.914.555 5.086 1.664 1.172 1.11 1.758 2.633 1.758 4.571 0 2.031-.703 4.031-2.109 6-1.407 1.968-3.922 4.015-7.547 6.14-1.813 1.032-5.688 2.891-11.625 5.578a29.434 29.434 0 0 0-.422 4.829c0 2.218.351 3.765 1.055 4.64.703.875 1.726 1.313 3.07 1.313 1.281 0 2.687-.36 4.219-1.078 2.062-.969 5.078-2.938 9.047-5.907m-16.407-6.797c5.032-2.25 8.813-4.671 11.344-7.265 1.719-1.813 2.578-3.61 2.578-5.391 0-1.344-.351-2.414-1.055-3.211-.703-.797-1.617-1.195-2.742-1.195-1.156 0-2.281.437-3.375 1.312-1.468 1.157-2.703 2.907-3.703 5.25a47.356 47.356 0 0 0-3.047 10.5m45.047-20.906c2.781 0 4.93.539 6.445 1.617 1.516 1.078 2.274 2.321 2.274 3.727 0 .844-.32 1.578-.961 2.203a3.203 3.203 0 0 1-2.32.938c-.594 0-1.11-.133-1.547-.399-.438-.266-1.063-.93-1.875-1.992-1.531-2.031-3.047-3.047-4.547-3.047-1.281 0-2.414.492-3.399 1.477-.984.984-1.476 2.211-1.476 3.679 0 1.282.312 2.524.937 3.727.625 1.203 2.204 3.148 4.735 5.836 3.469 3.687 5.203 7.187 5.203 10.5 0 3.312-1.406 6.211-4.219 8.695-2.812 2.484-6.437 3.727-10.875 3.727-3.719 0-6.484-.758-8.297-2.274-1.812-1.515-2.718-3.383-2.718-5.601 0-1.094.343-2 1.031-2.719.687-.719 1.531-1.078 2.531-1.078.875 0 1.625.289 2.25.867.625.578.938 1.258.938 2.039 0 .313-.032.719-.094 1.219-.031.406-.047.75-.047 1.031 0 1.031.437 1.906 1.312 2.625.844.719 2 1.078 3.469 1.078 1.688 0 3.172-.289 4.453-.867 1.282-.578 2.282-1.453 3-2.625.719-1.172 1.078-2.336 1.078-3.492 0-1.125-.336-2.25-1.007-3.375-.672-1.125-2.18-2.985-4.524-5.578-3.25-3.625-4.875-7.11-4.875-10.453 0-3.063 1.235-5.743 3.703-8.04 2.469-2.296 5.61-3.445 9.422-3.445m23.25-7.172l7.453-2.86-3.375 13.126h9.703l-.75 3.328h-9.703l-4.125 15.703c-1.281 4.719-1.922 8-1.922 9.844 0 .844.18 1.453.539 1.828.36.375.852.563 1.477.563.969 0 2.453-.579 4.453-1.735a58.326 58.326 0 0 0 7.5-5.203l1.781 2.156c-6.843 5.157-11.421 8.313-13.734 9.469-2.312 1.156-4.172 1.734-5.578 1.734-1.156 0-2.07-.421-2.742-1.265-.672-.844-1.008-2.219-1.008-4.125 0-2.25.594-5.688 1.781-10.313l4.828-18.656h-7.593l.843-3.328h7.547l2.625-10.266z" fill="#fff"/></svg>