<svg xmlns="http://www.w3.org/2000/svg" viewBox="0 0 330 330" width="512" height="512"><g fill="#FFF"><path d="M69.166 230c-8.284 0-15 6.716-15 15s6.716 15 15 15h95.836c8.284 0 15-6.716 15-15v-65H230v65c0 8.284 6.716 15 15 15s15-6.716 15-15V71.547c0-8.284-6.716-15-15-15s-15 6.716-15 15V150H30V30h75.082c8.284 0 15-6.716 15-15s-6.716-15-15-15H15C6.716 0 0 6.716 0 15v300c0 8.284 6.716 15 15 15h150c8.284 0 15-6.716 15-15s-6.716-15-15-15H30V180h120.002v50H69.166z"/><path d="M315 0H165.002c-8.284 0-15 6.716-15 15v65H75c-8.284 0-15 6.716-15 15s6.716 15 15 15h90.002c8.284 0 15-6.716 15-15V30H300v270h-75c-8.284 0-15 6.716-15 15s6.716 15 15 15h90c8.284 0 15-6.716 15-15V15c0-8.284-6.716-15-15-15z"/></g></svg>