<?xml version="1.0" encoding="iso-8859-1"?>
<!-- Generator: Adobe Illustrator 18.1.1, SVG Export Plug-In . SVG Version: 6.00 Build 0)  -->
<svg xmlns="http://www.w3.org/2000/svg" xmlns:xlink="http://www.w3.org/1999/xlink" version="1.1" id="Capa_1" x="0px" y="0px" viewBox="0 0 525.938 525.938" style="enable-background:new 0 0 525.938 525.938;" xml:space="preserve" width="512px" height="512px">
<g>
	<g>
		<path d="M283.889,346.641c11.553,5.578,19.521,14.344,23.906,26.297    c4.779,11.953,4.283,24.205-1.494,36.756c-5.779,12.554-14.645,20.819-26.598,24.806c-11.555,4.383-23.408,3.982-35.562-1.195    c-12.152-5.18-20.619-13.547-25.4-25.102c-4.781-11.157-4.881-22.91-0.299-35.265c4.582-12.352,12.451-21.117,23.607-26.297    l14.941-176.309c0-5.578,0.997-9.562,2.99-11.953c1.993-2.391,3.985-2.391,5.977,0c1.99,2.391,2.986,6.375,2.986,11.953    L283.889,346.641z M525.938,262.969c0,72.516-25.699,134.472-77.098,185.871c-51.398,51.398-113.355,77.098-185.871,77.098    s-134.472-25.7-185.871-77.098C25.699,397.441,0,335.484,0,262.969c0-72.516,25.7-134.472,77.098-185.871S190.453,0,262.969,0    c72.515,0,134.472,25.7,185.871,77.098S525.938,190.453,525.938,262.969z M457.209,340.664c9.961-25.104,14.938-51,14.938-77.695    c0-57.774-20.42-107.08-61.26-147.92s-90.145-61.26-147.917-61.26s-107.08,20.42-147.92,61.26s-61.26,90.147-61.26,147.92    c0,27.094,4.981,52.992,14.942,77.696c56.976-39.047,111.761-60.961,164.355-65.742l-5.977,47.812    c-23.906,11.557-35.859,33.472-35.859,65.742c0,19.922,6.972,36.856,20.918,50.801c13.946,13.945,30.879,20.918,50.801,20.918    c19.921,0,36.857-6.973,50.802-20.919c13.945-13.943,20.918-30.879,20.918-50.801c0-32.271-11.953-54.187-35.857-65.742    l-5.979-47.812C346.242,279.305,401.027,301.219,457.209,340.664z" fill="#FFFFFF"/>
	</g>
</g>
<g>
</g>
<g>
</g>
<g>
</g>
<g>
</g>
<g>
</g>
<g>
</g>
<g>
</g>
<g>
</g>
<g>
</g>
<g>
</g>
<g>
</g>
<g>
</g>
<g>
</g>
<g>
</g>
<g>
</g>
</svg>
