<svg xmlns="http://www.w3.org/2000/svg" viewBox="0 0 525.938 525.938" width="512" height="512"><path d="M283.889 346.641c11.553 5.578 19.521 14.344 23.906 26.297 4.779 11.953 4.283 24.205-1.494 36.756-5.779 12.554-14.645 20.819-26.598 24.806-11.555 4.383-23.408 3.982-35.562-1.195-12.152-5.18-20.619-13.547-25.4-25.102-4.781-11.157-4.881-22.91-.299-35.265 4.582-12.352 12.451-21.117 23.607-26.297l14.941-176.309c0-5.578.997-9.562 2.99-11.953 1.993-2.391 3.985-2.391 5.977 0 1.99 2.391 2.986 6.375 2.986 11.953l14.946 176.309zm242.049-83.672c0 72.516-25.699 134.472-77.098 185.871-51.398 51.398-113.355 77.098-185.871 77.098s-134.472-25.7-185.871-77.098C25.699 397.441 0 335.484 0 262.969c0-72.516 25.7-134.472 77.098-185.871S190.453 0 262.969 0c72.515 0 134.472 25.7 185.871 77.098s77.098 113.355 77.098 185.871zm-68.729 77.695c9.961-25.104 14.938-51 14.938-77.695 0-57.774-20.42-107.08-61.26-147.92s-90.145-61.26-147.917-61.26-107.08 20.42-147.92 61.26-61.26 90.147-61.26 147.92c0 27.094 4.981 52.992 14.942 77.696 56.976-39.047 111.761-60.961 164.355-65.742l-5.977 47.812c-23.906 11.557-35.859 33.472-35.859 65.742 0 19.922 6.972 36.856 20.918 50.801 13.946 13.945 30.879 20.918 50.801 20.918 19.921 0 36.857-6.973 50.802-20.919 13.945-13.943 20.918-30.879 20.918-50.801 0-32.271-11.953-54.187-35.857-65.742l-5.979-47.812c53.388 4.383 108.173 26.297 164.355 65.742z" fill="#FFF"/></svg>